<svg xmlns="http://www.w3.org/2000/svg" xmlns:xlink="http://www.w3.org/1999/xlink" width="42" height="42" id="user"><defs><linearGradient id="b" x1="1073.403" x2="1097.116" y1="516.451" y2="544.308" gradientTransform="translate(-1438.388 316.47) scale(1.34562)" gradientUnits="userSpaceOnUse" xlink:href="#a"></linearGradient><linearGradient id="a"><stop offset="0" stop-color="#16ff6a"></stop><stop offset="1" stop-color="#0090a5"></stop></linearGradient></defs><g transform="translate(0 -1010.362)"><rect width="42" height="42" y="1010.362" fill="url(#b)" rx="8.876" ry="8.876"></rect><path fill="#fff" fill-rule="evenodd" d="M21.48 1018.795c-3.021 0-5.48 2.47-5.48 5.5 0 3.031 2.459 5.5 5.48 5.5 3.022 0 5.48-2.469 5.48-5.5.001-3.03-2.458-5.5-5.48-5.5zm0 1c2.48 0 4.481 2.008 4.48 4.5 0 2.493-2 4.5-4.48 4.5a4.483 4.483 0 0 1-4.48-4.5c0-2.492 2.001-4.5 4.48-4.5zm-2.98 11c-4.148 0-7.5 3.369-7.5 7.53v4.515a.5.5 0 0 0 .5.5h3.854a.5.5 0 0 0 .292 0h11.708a.5.5 0 0 0 .292 0H31.5a.5.5 0 0 0 .5-.5v-4.515c0-4.161-3.352-7.53-7.5-7.53h-6zm0 1h6c3.609 0 6.5 2.903 6.5 6.53v4.015h-3v-4.023a.5.5 0 0 0-.508-.506.5.5 0 0 0-.492.506v4.023H16v-4.023a.5.5 0 0 0-.508-.506.5.5 0 0 0-.492.506v4.023h-3v-4.015c0-3.627 2.891-6.53 6.5-6.53z" color="#000" font-family="sans-serif" font-weight="400" overflow="visible" style="line-height:normal;text-indent:0;text-align:start;text-decoration-line:none;text-decoration-style:solid;text-decoration-color:#000;text-transform:none;block-progression:tb;isolation:auto;mix-blend-mode:normal"></path></g></svg>